:SAMPLES-PER-SECOND 30
:FULLY-SPECIFIED
:DEGREES
425
root  47.2634 37.603 0.0144892 8.16886 42.645 11.6323
RightUpLeg  -32.0743 -32.286 10.439
RightLeg  18.7639 -19.9418 -2.73631
RightFoot  -3.66265 1.63245 -24.1887
RightToes  0.00048216 0.542163 -0.142577
Spine  33.1438 -3.85672 4.05049
Spine1  14.9771 -3.20439 -0.296072
HEad  -5.52482 0.0924723 -0.0904133
LeftShoulder1  10.4131 -16.6659 -44.9837
LeftArm  -13.1569 -13.7989 -23.402
LeftForeArm  29.4457 -37.8982 -6.90261
LeftHand  -0.25398 0.0180481 5.50724
RightShoulder  5.60476 11.1376 32.3373
RightArm  -11.5798 0.1365 38.6639
RightForeArm  7.90791 6.18073 6.11339
RightHand  -1.72062 4.53221 -20.2736
LeftUpLeg  -5.02356 33.3384 -8.62402
LeftLeg  44.0832 5.60413 6.24232
LeftFoot  -9.65669 0.195659 -11.6128
LeftToes  1.06244e-005 4.65856e-005 -8.18505e-006
426
root  48.1623 37.3403 0.0990353 6.79823 40.2363 8.14772
RightUpLeg  -36.9593 -36.5506 17.2799
RightLeg  22.6636 -12.3642 -4.27993
RightFoot  -5.1642 1.18692 -22.3187
RightToes  0.00048216 0.542163 -0.142577
Spine  36.4663 -3.99106 6.61373
Spine1  15.1583 -2.59703 -0.012199
HEad  -7.92338 -0.0805471 -0.0155425
LeftShoulder1  9.99243 -16.9891 -42.3397
LeftArm  -15.6963 -17.0497 -24.8142
LeftForeArm  29.7961 -37.3612 -6.73271
LeftHand  -0.25398 0.0180481 5.50724
RightShoulder  5.49615 11.5318 30.5919
RightArm  -12.2811 2.36544 39.1685
RightForeArm  9.69742 5.27705 5.7271
RightHand  -1.42808 3.48925 -18.8098
LeftUpLeg  -15.5349 33.7648 -7.40468
LeftLeg  58.1877 4.49824 8.19451
LeftFoot  4.50186 1.22667 -9.24502
LeftToes  1.06244e-005 4.65856e-005 -8.18505e-006
427
root  48.9659 37.0829 0.10322 5.51789 38.2367 4.65422
RightUpLeg  -38.7499 -36.1172 20.0474
RightLeg  25.542 -10.9381 -4.42349
RightFoot  -6.53277 0.873304 -21.5674
RightToes  0.00048216 0.542163 -0.142577
Spine  40.0612 -4.20778 8.74175
Spine1  14.843 -2.61401 1.23527
HEad  -10.1342 0.28783 -0.135555
LeftShoulder1  9.51138 -17.1142 -39.8719
LeftArm  -18.1988 -20.3067 -25.33
LeftForeArm  29.3359 -36.075 -6.41076
LeftHand  -0.25398 0.0180481 5.50724
RightShoulder  5.21788 11.6617 28.399
RightArm  -12.9696 5.93109 39.9717
RightForeArm  10.9689 4.76899 5.42947
RightHand  -1.16346 2.51808 -17.2431
LeftUpLeg  -25.6712 32.4712 -6.02161
LeftLeg  68.1987 2.12097 6.58236
LeftFoot  13.0006 1.05612 -5.1455
LeftToes  1.06244e-005 4.65856e-005 -8.18505e-006
428
root  49.8373 37.144 0.160692 6.05641 36.1825 3.36703
RightUpLeg  -39.7342 -35.1206 20.8079
RightLeg  26.5503 -9.49282 -4.51396
RightFoot  -6.93029 0.771539 -20.9751
RightToes  0.00048216 0.542163 -0.142577
Spine  43.298 -4.22102 9.02244
Spine1  14.5415 -2.75002 2.14524
HEad  -12.2495 0.712448 -0.358584
LeftShoulder1  9.23255 -17.4552 -37.8869
LeftArm  -20.3353 -23.924 -24.5187
LeftForeArm  28.3927 -33.8192 -5.88277
LeftHand  -0.25398 0.0180481 5.50724
RightShoulder  4.99001 11.715 26.7305
RightArm  -13.6824 10.4038 40.1599
RightForeArm  9.88622 5.07788 5.39004
RightHand  -1.11994 2.40212 -16.8347
LeftUpLeg  -33.796 30.6434 -5.92677
LeftLeg  72.2356 0.665434 3.42814
LeftFoot  12.9435 0.623679 -3.26257
LeftToes  1.06244e-005 4.65856e-005 -8.18505e-006
429
root  50.7515 37.4093 0.284402 7.82155 33.9091 3.82482
RightUpLeg  -40.2696 -33.4717 19.6955
RightLeg  26.7425 -8.28535 -4.72226
RightFoot  -6.62209 0.745716 -18.9822
RightToes  0.00048216 0.542163 -0.142577
Spine  45.7682 -4.01454 7.99646
Spine1  15.2808 -2.82052 2.34205
HEad  -14.7008 0.988343 -0.521437
LeftShoulder1  9.06564 -18.0676 -35.9038
LeftArm  -22.0062 -28.4755 -22.7388
LeftForeArm  27.1391 -30.1507 -5.05532
LeftHand  -0.25398 0.0180481 5.50724
RightShoulder  4.87042 12.0896 25.125
RightArm  -14.9047 15.6851 40.0485
RightForeArm  7.15037 5.61662 5.36825
RightHand  -1.3197 3.3382 -17.7155
LeftUpLeg  -39.6803 29.2558 -6.46885
LeftLeg  70.8453 0.496843 2.48366
LeftFoot  9.20181 0.644963 -3.88741
LeftToes  1.06244e-005 4.65856e-005 -8.18505e-006
430
root  51.6703 37.6663 0.421343 9.39539 31.4852 4.54446
RightUpLeg  -40.1528 -31.5877 17.4974
RightLeg  26.9227 -7.78397 -4.52428
RightFoot  -6.15383 0.74165 -17.1242
RightToes  0.00048216 0.542163 -0.142577
Spine  48.3294 -3.83243 6.73927
Spine1  16.2355 -3.00628 2.43555
HEad  -17.1817 1.35077 -0.812806
LeftShoulder1  8.77721 -18.3288 -34.1248
LeftArm  -23.0658 -33.5762 -20.0479
LeftForeArm  25.429 -25.3222 -4.11173
LeftHand  -0.25398 0.0180481 5.50724
RightShoulder  4.6519 12.6786 22.473
RightArm  -16.3896 21.2915 40.3863
RightForeArm  5.24312 5.84244 5.1761
RightHand  -1.5899 4.59457 -18.6906
LeftUpLeg  -43.4898 28.5429 -6.65818
LeftLeg  65.6259 1.38589 3.9905
LeftFoot  6.25211 0.586422 -3.99625
LeftToes  1.06244e-005 4.65856e-005 -8.18505e-006
431
root  52.5972 37.8732 0.540186 10.4918 28.9378 4.83909
RightUpLeg  -40.0911 -30.3467 15.9084
RightLeg  26.9692 -6.76733 -3.96729
RightFoot  -5.54397 0.818745 -16.7527
RightToes  0.00048216 0.542163 -0.142577
Spine  50.823 -3.69473 6.14208
Spine1  17.2597 -2.61201 1.7719
HEad  -19.3571 1.03444 -0.768442
LeftShoulder1  8.49979 -18.9553 -31.7503
LeftArm  -24.8188 -38.5968 -17.3322
LeftForeArm  24.4123 -19.3906 -3.47534
LeftHand  -0.25398 0.0180481 5.50724
RightShoulder  4.30957 12.7218 20.1718
RightArm  -17.2334 27.136 39.8433
RightForeArm  4.46978 5.73799 5.08901
RightHand  -1.7753 5.4788 -19.1724
LeftUpLeg  -45.4245 28.3362 -6.34719
LeftLeg  57.4266 2.91605 5.44499
LeftFoot  3.8913 0.251253 -2.05941
LeftToes  1.06244e-005 4.65856e-005 -8.18505e-006
432
root  53.5521 37.9834 0.649462 11.613 26.0766 4.52639
RightUpLeg  -40.7391 -28.6693 14.9886
RightLeg  27.4128 -5.75297 -3.46918
RightFoot  -4.95421 0.899982 -16.5911
RightToes  0.00048216 0.542163 -0.142577
Spine  53.2637 -3.53706 5.38692
Spine1  17.8148 -2.31489 1.3929
HEad  -21.1067 1.41081 -1.47109
LeftShoulder1  8.3345 -18.9909 -30.9609
LeftArm  -28.7247 -42.7533 -12.847
LeftForeArm  24.4978 -13.8055 -3.66247
LeftHand  -0.25398 0.0180481 5.50724
RightShoulder  3.98195 13.3064 17.0436
RightArm  -17.4182 33.3243 38.9719
RightForeArm  4.17843 4.75105 5.10427
RightHand  -1.94825 6.12227 -19.8484
LeftUpLeg  -46.1216 28.7189 -5.62121
LeftLeg  46.4542 3.86053 4.8108
LeftFoot  2.18094 0.217637 -1.95864
LeftToes  1.06244e-005 4.65856e-005 -8.18505e-006
